<?xml version="1.0" standalone="no"?>
<!DOCTYPE svg PUBLIC "-//W3C//DTD SVG 20010904//EN"
 "http://www.w3.org/TR/2001/REC-SVG-20010904/DTD/svg10.dtd">
<svg version="1.0" xmlns="http://www.w3.org/2000/svg"
 width="113.000000pt" height="111.000000pt" viewBox="0 0 113.000000 111.000000"
 preserveAspectRatio="xMidYMid meet">

<g transform="translate(0.000000,111.000000) scale(0.100000,-0.100000)"
fill="#000000" stroke="none">
<path d="M340 715 c0 -7 -7 -18 -16 -23 -13 -7 -14 -23 -3 -140 l13 -132 65 0
c44 0 81 -7 110 -20 54 -25 68 -25 122 0 30 13 66 20 110 20 l67 0 6 53 c18
163 19 214 2 220 -9 4 -13 13 -10 22 14 36 -122 8 -197 -42 l-38 -25 -31 22
c-66 47 -200 78 -200 45z m79 -6 c27 -5 70 -23 95 -39 l46 -30 0 -120 0 -121
-35 27 c-19 14 -61 34 -92 44 l-58 18 -6 53 c-16 132 -18 179 -9 179 5 0 31
-5 59 -11z m367 -56 c-13 -130 -19 -165 -30 -168 -47 -13 -111 -40 -141 -60
l-35 -24 0 119 0 120 39 26 c38 25 115 51 155 53 17 1 18 -4 12 -66z m-442
-10 c3 -21 8 -68 12 -105 5 -55 10 -68 23 -68 24 0 110 -30 116 -41 4 -5 -7
-6 -22 -3 -15 3 -50 6 -78 7 l-50 2 -7 80 c-4 44 -9 99 -12 123 -7 52 10 57
18 5z m469 -40 c-3 -43 -9 -98 -12 -123 l-6 -45 -75 -5 c-41 -3 -77 -5 -79 -3
-7 5 71 35 105 40 35 6 32 -4 50 156 10 86 25 69 17 -20z"/>
<path d="M263 646 c3 -8 11 -61 18 -118 17 -151 9 -141 132 -161 58 -9 128
-17 157 -17 47 0 259 29 269 37 6 4 41 267 36 272 -2 2 -10 1 -18 -2 -10 -4
-16 -34 -21 -109 -10 -151 -8 -145 -69 -140 -36 3 -71 -3 -114 -17 -77 -26
-89 -26 -166 0 -43 14 -78 20 -114 17 l-51 -5 -6 41 c-3 23 -8 80 -12 129 -6
78 -8 87 -26 87 -13 0 -18 -5 -15 -14z"/>
</g>
</svg>
